<mxfile host="app.diagrams.net" modified="2022-07-29T03:01:46.446Z" agent="5.0 (Windows)" etag="VYlL2zzKsk1v3EYWJiGn" version="20.0.1" type="github">
  <diagram id="R2lEEEUBdFMjLlhIrx00" name="Page-1">
    <mxGraphModel dx="1038" dy="536" grid="1" gridSize="10" guides="1" tooltips="1" connect="1" arrows="1" fold="1" page="1" pageScale="1" pageWidth="1169" pageHeight="1654" math="0" shadow="0" extFonts="Permanent Marker^https://fonts.googleapis.com/css?family=Permanent+Marker">
      <root>
        <mxCell id="0" />
        <mxCell id="1" parent="0" />
        <mxCell id="C-vyLk0tnHw3VtMMgP7b-2" value="CheckPoint 排查点（用于风险警示和历史查看）" style="shape=table;startSize=30;container=1;collapsible=1;childLayout=tableLayout;fixedRows=1;rowLines=0;fontStyle=1;align=center;resizeLast=1;" parent="1" vertex="1">
          <mxGeometry x="437" y="120" width="260" height="310" as="geometry" />
        </mxCell>
        <mxCell id="C-vyLk0tnHw3VtMMgP7b-3" value="" style="shape=partialRectangle;collapsible=0;dropTarget=0;pointerEvents=0;fillColor=none;points=[[0,0.5],[1,0.5]];portConstraint=eastwest;top=0;left=0;right=0;bottom=1;" parent="C-vyLk0tnHw3VtMMgP7b-2" vertex="1">
          <mxGeometry y="30" width="260" height="30" as="geometry" />
        </mxCell>
        <mxCell id="C-vyLk0tnHw3VtMMgP7b-4" value="PK" style="shape=partialRectangle;overflow=hidden;connectable=0;fillColor=none;top=0;left=0;bottom=0;right=0;fontStyle=1;" parent="C-vyLk0tnHw3VtMMgP7b-3" vertex="1">
          <mxGeometry width="30" height="30" as="geometry">
            <mxRectangle width="30" height="30" as="alternateBounds" />
          </mxGeometry>
        </mxCell>
        <mxCell id="C-vyLk0tnHw3VtMMgP7b-5" value="uuid" style="shape=partialRectangle;overflow=hidden;connectable=0;fillColor=none;top=0;left=0;bottom=0;right=0;align=left;spacingLeft=6;fontStyle=5;" parent="C-vyLk0tnHw3VtMMgP7b-3" vertex="1">
          <mxGeometry x="30" width="230" height="30" as="geometry">
            <mxRectangle width="230" height="30" as="alternateBounds" />
          </mxGeometry>
        </mxCell>
        <mxCell id="C-vyLk0tnHw3VtMMgP7b-6" value="" style="shape=partialRectangle;collapsible=0;dropTarget=0;pointerEvents=0;fillColor=none;points=[[0,0.5],[1,0.5]];portConstraint=eastwest;top=0;left=0;right=0;bottom=0;" parent="C-vyLk0tnHw3VtMMgP7b-2" vertex="1">
          <mxGeometry y="60" width="260" height="240" as="geometry" />
        </mxCell>
        <mxCell id="C-vyLk0tnHw3VtMMgP7b-7" value="" style="shape=partialRectangle;overflow=hidden;connectable=0;fillColor=none;top=0;left=0;bottom=0;right=0;" parent="C-vyLk0tnHw3VtMMgP7b-6" vertex="1">
          <mxGeometry width="30" height="240" as="geometry">
            <mxRectangle width="30" height="240" as="alternateBounds" />
          </mxGeometry>
        </mxCell>
        <mxCell id="C-vyLk0tnHw3VtMMgP7b-8" value="name 排查点名称&#xa;description 排查描述/检查内容与检查要求&#xa;hidden_level 隐患等级&#xa;hidden_type 隐患类型&#xa;result 最新排查结果&#xa;step_state 当前排查步骤【隐患排查步骤】&#xa;comment 备注&#xa;image 【Image/Video】 当前排查点状态&#xa;industry/company/check_plan 标识租户&#xa;&#xa;respondent 负责人（多对多）&#xa;risk_area 风险区域（多对一）&#xa;check_date 排查时间（数组）&#xa;check_person 排查人（多对多数组）&#xa;" style="shape=partialRectangle;overflow=hidden;connectable=0;fillColor=none;top=0;left=0;bottom=0;right=0;align=left;spacingLeft=6;" parent="C-vyLk0tnHw3VtMMgP7b-6" vertex="1">
          <mxGeometry x="30" width="230" height="240" as="geometry">
            <mxRectangle width="230" height="240" as="alternateBounds" />
          </mxGeometry>
        </mxCell>
        <mxCell id="YM-1iOpIzaRyPW3BD4es-34" value="" style="edgeStyle=elbowEdgeStyle;elbow=horizontal;endArrow=classic;html=1;rounded=0;exitX=0;exitY=0.5;exitDx=0;exitDy=0;entryX=0;entryY=0.25;entryDx=0;entryDy=0;" parent="C-vyLk0tnHw3VtMMgP7b-2" source="C-vyLk0tnHw3VtMMgP7b-6" target="C-vyLk0tnHw3VtMMgP7b-2" edge="1">
          <mxGeometry width="50" height="50" relative="1" as="geometry">
            <mxPoint x="-87" y="440" as="sourcePoint" />
            <mxPoint x="-37" y="390" as="targetPoint" />
            <Array as="points">
              <mxPoint x="-37" y="129" />
            </Array>
          </mxGeometry>
        </mxCell>
        <mxCell id="YM-1iOpIzaRyPW3BD4es-35" value="下一步" style="edgeLabel;html=1;align=center;verticalAlign=middle;resizable=0;points=[];" parent="YM-1iOpIzaRyPW3BD4es-34" vertex="1" connectable="0">
          <mxGeometry x="0.1105" y="-4" relative="1" as="geometry">
            <mxPoint as="offset" />
          </mxGeometry>
        </mxCell>
        <mxCell id="C-vyLk0tnHw3VtMMgP7b-13" value="CycleState 排查周期" style="shape=table;startSize=30;container=1;collapsible=1;childLayout=tableLayout;fixedRows=1;rowLines=0;fontStyle=1;align=center;resizeLast=1;" parent="1" vertex="1">
          <mxGeometry x="841" y="120" width="250" height="250" as="geometry" />
        </mxCell>
        <mxCell id="C-vyLk0tnHw3VtMMgP7b-14" value="" style="shape=partialRectangle;collapsible=0;dropTarget=0;pointerEvents=0;fillColor=none;points=[[0,0.5],[1,0.5]];portConstraint=eastwest;top=0;left=0;right=0;bottom=1;" parent="C-vyLk0tnHw3VtMMgP7b-13" vertex="1">
          <mxGeometry y="30" width="250" height="30" as="geometry" />
        </mxCell>
        <mxCell id="C-vyLk0tnHw3VtMMgP7b-15" value="PK" style="shape=partialRectangle;overflow=hidden;connectable=0;fillColor=none;top=0;left=0;bottom=0;right=0;fontStyle=1;" parent="C-vyLk0tnHw3VtMMgP7b-14" vertex="1">
          <mxGeometry width="30" height="30" as="geometry">
            <mxRectangle width="30" height="30" as="alternateBounds" />
          </mxGeometry>
        </mxCell>
        <mxCell id="C-vyLk0tnHw3VtMMgP7b-16" value="uuid" style="shape=partialRectangle;overflow=hidden;connectable=0;fillColor=none;top=0;left=0;bottom=0;right=0;align=left;spacingLeft=6;fontStyle=5;" parent="C-vyLk0tnHw3VtMMgP7b-14" vertex="1">
          <mxGeometry x="30" width="220" height="30" as="geometry">
            <mxRectangle width="220" height="30" as="alternateBounds" />
          </mxGeometry>
        </mxCell>
        <mxCell id="C-vyLk0tnHw3VtMMgP7b-17" value="" style="shape=partialRectangle;collapsible=0;dropTarget=0;pointerEvents=0;fillColor=none;points=[[0,0.5],[1,0.5]];portConstraint=eastwest;top=0;left=0;right=0;bottom=0;" parent="C-vyLk0tnHw3VtMMgP7b-13" vertex="1">
          <mxGeometry y="60" width="250" height="180" as="geometry" />
        </mxCell>
        <mxCell id="C-vyLk0tnHw3VtMMgP7b-18" value="" style="shape=partialRectangle;overflow=hidden;connectable=0;fillColor=none;top=0;left=0;bottom=0;right=0;" parent="C-vyLk0tnHw3VtMMgP7b-17" vertex="1">
          <mxGeometry width="30" height="180" as="geometry">
            <mxRectangle width="30" height="180" as="alternateBounds" />
          </mxGeometry>
        </mxCell>
        <mxCell id="C-vyLk0tnHw3VtMMgP7b-19" value="cycle 排查周期【1+2+3 unique】&#xa;check_type 排查类型&#xa;check_level 组织级别&#xa;description 周期描述&#xa;industry/company 标识租户&#xa;edit_person 编制人（多对多）&#xa;standard 参考标准（多对多）&#xa;url 参考网址&#xa;attachment 附件&#xa;comment 备注" style="shape=partialRectangle;overflow=hidden;connectable=0;fillColor=none;top=0;left=0;bottom=0;right=0;align=left;spacingLeft=6;" parent="C-vyLk0tnHw3VtMMgP7b-17" vertex="1">
          <mxGeometry x="30" width="220" height="180" as="geometry">
            <mxRectangle width="220" height="180" as="alternateBounds" />
          </mxGeometry>
        </mxCell>
        <mxCell id="C-vyLk0tnHw3VtMMgP7b-23" value="CheckList 隐患排查清单/排查计划" style="shape=table;startSize=30;container=1;collapsible=1;childLayout=tableLayout;fixedRows=1;rowLines=0;fontStyle=1;align=center;resizeLast=1;" parent="1" vertex="1">
          <mxGeometry x="32" y="120" width="258" height="410" as="geometry" />
        </mxCell>
        <mxCell id="C-vyLk0tnHw3VtMMgP7b-24" value="" style="shape=partialRectangle;collapsible=0;dropTarget=0;pointerEvents=0;fillColor=none;points=[[0,0.5],[1,0.5]];portConstraint=eastwest;top=0;left=0;right=0;bottom=1;" parent="C-vyLk0tnHw3VtMMgP7b-23" vertex="1">
          <mxGeometry y="30" width="258" height="30" as="geometry" />
        </mxCell>
        <mxCell id="C-vyLk0tnHw3VtMMgP7b-25" value="PK" style="shape=partialRectangle;overflow=hidden;connectable=0;fillColor=none;top=0;left=0;bottom=0;right=0;fontStyle=1;" parent="C-vyLk0tnHw3VtMMgP7b-24" vertex="1">
          <mxGeometry width="30" height="30" as="geometry">
            <mxRectangle width="30" height="30" as="alternateBounds" />
          </mxGeometry>
        </mxCell>
        <mxCell id="C-vyLk0tnHw3VtMMgP7b-26" value="uuid" style="shape=partialRectangle;overflow=hidden;connectable=0;fillColor=none;top=0;left=0;bottom=0;right=0;align=left;spacingLeft=6;fontStyle=5;" parent="C-vyLk0tnHw3VtMMgP7b-24" vertex="1">
          <mxGeometry x="30" width="228" height="30" as="geometry">
            <mxRectangle width="228" height="30" as="alternateBounds" />
          </mxGeometry>
        </mxCell>
        <mxCell id="C-vyLk0tnHw3VtMMgP7b-27" value="" style="shape=partialRectangle;collapsible=0;dropTarget=0;pointerEvents=0;fillColor=none;points=[[0,0.5],[1,0.5]];portConstraint=eastwest;top=0;left=0;right=0;bottom=0;" parent="C-vyLk0tnHw3VtMMgP7b-23" vertex="1">
          <mxGeometry y="60" width="258" height="330" as="geometry" />
        </mxCell>
        <mxCell id="C-vyLk0tnHw3VtMMgP7b-28" value="" style="shape=partialRectangle;overflow=hidden;connectable=0;fillColor=none;top=0;left=0;bottom=0;right=0;" parent="C-vyLk0tnHw3VtMMgP7b-27" vertex="1">
          <mxGeometry width="30" height="330" as="geometry">
            <mxRectangle width="30" height="330" as="alternateBounds" />
          </mxGeometry>
        </mxCell>
        <mxCell id="C-vyLk0tnHw3VtMMgP7b-29" value="check_content 排查内容&#xa;check_method 排查方法&#xa;check_standard 排查标准&#xa;check_type 排查类型&#xa;check_cycle 排查周期&#xa;check_level 排查组织级别&#xa;&#xa;industry/company 行业/公司&#xa;name 清单名称&#xa;code 清单代码&#xa;description 清单描述&#xa;start_date 开始日期&#xa;end_date 结束日期&#xa;url 参考网址&#xa;attachment 附件&#xa;comment 备注&#xa;standard 参考标准规范（多对多）&#xa;risk_area 排查风险区域（多对多）&#xa;edit_person 编制人（多对多）&#xa;check_person 审核人（多对多）&#xa;if 排查计划则：&#xa;participants 参与人员&amp;对应权限（多对多）&#xa;" style="shape=partialRectangle;overflow=hidden;connectable=0;fillColor=none;top=0;left=0;bottom=0;right=0;align=left;spacingLeft=6;" parent="C-vyLk0tnHw3VtMMgP7b-27" vertex="1">
          <mxGeometry x="30" width="228" height="330" as="geometry">
            <mxRectangle width="228" height="330" as="alternateBounds" />
          </mxGeometry>
        </mxCell>
        <mxCell id="YM-1iOpIzaRyPW3BD4es-1" value="参考标准：4282压力管道" style="text;strokeColor=none;fillColor=none;html=1;fontSize=24;fontStyle=1;verticalAlign=middle;align=center;" parent="1" vertex="1">
          <mxGeometry x="110" y="30" width="100" height="40" as="geometry" />
        </mxCell>
        <mxCell id="YM-1iOpIzaRyPW3BD4es-2" value="一对多" style="rhombus;whiteSpace=wrap;html=1;" parent="1" vertex="1">
          <mxGeometry x="315" y="125" width="80" height="80" as="geometry" />
        </mxCell>
        <mxCell id="YM-1iOpIzaRyPW3BD4es-3" value="" style="endArrow=classic;html=1;rounded=0;exitX=1;exitY=0.5;exitDx=0;exitDy=0;entryX=0;entryY=0.5;entryDx=0;entryDy=0;" parent="1" source="YM-1iOpIzaRyPW3BD4es-2" target="C-vyLk0tnHw3VtMMgP7b-3" edge="1">
          <mxGeometry width="50" height="50" relative="1" as="geometry">
            <mxPoint x="430" y="250" as="sourcePoint" />
            <mxPoint x="330" y="230" as="targetPoint" />
          </mxGeometry>
        </mxCell>
        <mxCell id="YM-1iOpIzaRyPW3BD4es-4" value="" style="endArrow=none;html=1;rounded=0;exitX=1;exitY=0.5;exitDx=0;exitDy=0;entryX=0;entryY=0.5;entryDx=0;entryDy=0;" parent="1" source="C-vyLk0tnHw3VtMMgP7b-24" target="YM-1iOpIzaRyPW3BD4es-2" edge="1">
          <mxGeometry width="50" height="50" relative="1" as="geometry">
            <mxPoint x="400" y="340" as="sourcePoint" />
            <mxPoint x="370" y="165" as="targetPoint" />
          </mxGeometry>
        </mxCell>
        <mxCell id="YM-1iOpIzaRyPW3BD4es-6" value="多对多" style="rhombus;whiteSpace=wrap;html=1;" parent="1" vertex="1">
          <mxGeometry x="731" y="125" width="80" height="80" as="geometry" />
        </mxCell>
        <mxCell id="YM-1iOpIzaRyPW3BD4es-7" value="" style="endArrow=none;html=1;rounded=0;exitX=1;exitY=0.5;exitDx=0;exitDy=0;endFill=0;entryX=0;entryY=0.5;entryDx=0;entryDy=0;" parent="1" target="C-vyLk0tnHw3VtMMgP7b-14" edge="1">
          <mxGeometry width="50" height="50" relative="1" as="geometry">
            <mxPoint x="810" y="165" as="sourcePoint" />
            <mxPoint x="820" y="240" as="targetPoint" />
          </mxGeometry>
        </mxCell>
        <mxCell id="YM-1iOpIzaRyPW3BD4es-8" value="" style="endArrow=none;html=1;rounded=0;entryX=0;entryY=0.5;entryDx=0;entryDy=0;exitX=1;exitY=0.5;exitDx=0;exitDy=0;" parent="1" source="C-vyLk0tnHw3VtMMgP7b-3" target="YM-1iOpIzaRyPW3BD4es-6" edge="1">
          <mxGeometry width="50" height="50" relative="1" as="geometry">
            <mxPoint x="730" y="190" as="sourcePoint" />
            <mxPoint x="768" y="165" as="targetPoint" />
          </mxGeometry>
        </mxCell>
        <mxCell id="YM-1iOpIzaRyPW3BD4es-21" value="一对一" style="rhombus;whiteSpace=wrap;html=1;" parent="1" vertex="1">
          <mxGeometry x="590.01" y="470" width="80" height="80" as="geometry" />
        </mxCell>
        <mxCell id="YM-1iOpIzaRyPW3BD4es-22" value="" style="endArrow=none;html=1;rounded=0;exitX=0.5;exitY=1;exitDx=0;exitDy=0;endFill=0;entryX=0.5;entryY=0;entryDx=0;entryDy=0;" parent="1" source="YM-1iOpIzaRyPW3BD4es-21" target="YM-1iOpIzaRyPW3BD4es-24" edge="1">
          <mxGeometry width="50" height="50" relative="1" as="geometry">
            <mxPoint x="585" y="620" as="sourcePoint" />
            <mxPoint x="616" y="620" as="targetPoint" />
          </mxGeometry>
        </mxCell>
        <mxCell id="YM-1iOpIzaRyPW3BD4es-23" value="" style="endArrow=none;html=1;rounded=0;entryX=0.5;entryY=0;entryDx=0;entryDy=0;" parent="1" target="YM-1iOpIzaRyPW3BD4es-21" edge="1">
          <mxGeometry width="50" height="50" relative="1" as="geometry">
            <mxPoint x="630" y="430" as="sourcePoint" />
            <mxPoint x="768" y="510" as="targetPoint" />
          </mxGeometry>
        </mxCell>
        <mxCell id="YM-1iOpIzaRyPW3BD4es-24" value="&lt;div align=&quot;left&quot;&gt;&lt;span style=&quot;white-space: pre;&quot;&gt; &lt;/span&gt;Measure 管控措施&lt;br&gt;&lt;/div&gt;&lt;div align=&quot;left&quot;&gt;&lt;span style=&quot;white-space: pre;&quot;&gt; &lt;/span&gt;+ RiskFactor 危害因素&lt;/div&gt;&lt;div align=&quot;left&quot;&gt;&lt;span style=&quot;white-space: pre;&quot;&gt; &lt;/span&gt;+ EvaluateResult 分级结果（可为空）&lt;/div&gt;&lt;div align=&quot;left&quot;&gt;&lt;span style=&quot;white-space: pre;&quot;&gt; &lt;/span&gt;+ ResultRespondent 负责信息&lt;br&gt;&lt;/div&gt;" style="rounded=0;whiteSpace=wrap;html=1;align=left;" parent="1" vertex="1">
          <mxGeometry x="516.13" y="600" width="227.75" height="100" as="geometry" />
        </mxCell>
        <mxCell id="YM-1iOpIzaRyPW3BD4es-25" value="一对多" style="rhombus;whiteSpace=wrap;html=1;" parent="1" vertex="1">
          <mxGeometry x="415" y="610" width="80" height="80" as="geometry" />
        </mxCell>
        <mxCell id="YM-1iOpIzaRyPW3BD4es-26" value="" style="endArrow=classic;html=1;rounded=0;exitX=1;exitY=0.5;exitDx=0;exitDy=0;entryX=0;entryY=0.5;entryDx=0;entryDy=0;" parent="1" source="YM-1iOpIzaRyPW3BD4es-25" target="YM-1iOpIzaRyPW3BD4es-24" edge="1">
          <mxGeometry width="50" height="50" relative="1" as="geometry">
            <mxPoint x="425.5" y="745" as="sourcePoint" />
            <mxPoint x="432.5" y="660" as="targetPoint" />
          </mxGeometry>
        </mxCell>
        <mxCell id="YM-1iOpIzaRyPW3BD4es-27" value="" style="endArrow=none;html=1;rounded=0;exitX=1;exitY=0.5;exitDx=0;exitDy=0;entryX=0;entryY=0.5;entryDx=0;entryDy=0;" parent="1" source="YM-1iOpIzaRyPW3BD4es-28" target="YM-1iOpIzaRyPW3BD4es-25" edge="1">
          <mxGeometry width="50" height="50" relative="1" as="geometry">
            <mxPoint x="277.5" y="660" as="sourcePoint" />
            <mxPoint x="365.5" y="660" as="targetPoint" />
          </mxGeometry>
        </mxCell>
        <mxCell id="YM-1iOpIzaRyPW3BD4es-28" value="RiskUnit 风险单元" style="rounded=0;whiteSpace=wrap;html=1;" parent="1" vertex="1">
          <mxGeometry x="270" y="620" width="120" height="60" as="geometry" />
        </mxCell>
        <mxCell id="YM-1iOpIzaRyPW3BD4es-29" value="一对多" style="rhombus;whiteSpace=wrap;html=1;" parent="1" vertex="1">
          <mxGeometry x="164" y="610" width="80" height="80" as="geometry" />
        </mxCell>
        <mxCell id="YM-1iOpIzaRyPW3BD4es-30" value="" style="endArrow=classic;html=1;rounded=0;exitX=1;exitY=0.5;exitDx=0;exitDy=0;entryX=0;entryY=0.5;entryDx=0;entryDy=0;" parent="1" source="YM-1iOpIzaRyPW3BD4es-29" target="YM-1iOpIzaRyPW3BD4es-28" edge="1">
          <mxGeometry width="50" height="50" relative="1" as="geometry">
            <mxPoint x="190" y="735" as="sourcePoint" />
            <mxPoint x="197" y="650" as="targetPoint" />
          </mxGeometry>
        </mxCell>
        <mxCell id="YM-1iOpIzaRyPW3BD4es-31" value="" style="endArrow=none;html=1;rounded=0;exitX=1;exitY=0.5;exitDx=0;exitDy=0;entryX=0;entryY=0.5;entryDx=0;entryDy=0;" parent="1" source="YM-1iOpIzaRyPW3BD4es-32" target="YM-1iOpIzaRyPW3BD4es-29" edge="1">
          <mxGeometry width="50" height="50" relative="1" as="geometry">
            <mxPoint x="42" y="650" as="sourcePoint" />
            <mxPoint x="130" y="650" as="targetPoint" />
          </mxGeometry>
        </mxCell>
        <mxCell id="YM-1iOpIzaRyPW3BD4es-32" value="RiskPoint 风险点" style="rounded=0;whiteSpace=wrap;html=1;" parent="1" vertex="1">
          <mxGeometry x="20" y="620" width="120" height="60" as="geometry" />
        </mxCell>
      </root>
    </mxGraphModel>
  </diagram>
</mxfile>
